<svg width="92" height="22" viewBox="0 0 92 22" fill="none" xmlns="http://www.w3.org/2000/svg">
<path d="M31 6C32.32 6.99 33.64 7.98 35 9C35.3906 11.918 35.3906 11.918 35.25 15.1875C35.2139 16.2742 35.1778 17.3609 35.1406 18.4805C35.0942 19.3119 35.0478 20.1434 35 21C33.68 21 32.36 21 31 21C31 16.05 31 11.1 31 6Z" fill="#EFEAFD"/>
<path d="M31.0116 0C35.0118 0.83358 35.5118 1.33358 40.3241 4.5625C41.0215 5.20316 41.7188 5.84383 42.4374 6.50391C42.9569 6.99762 43.4763 7.49133 44.0116 8C45.3248 7.02181 46.6371 6.04242 47.9491 5.0625C48.68 4.51723 49.7587 3.89538 50.5118 3.33358C52.8596 1.757 52.5118 1.83358 54.1192 1C55.7692 1 56.3116 1 58.0116 1C58.0116 7.6 58.0116 14.2 58.0116 21C57.0216 21 56.0316 21 55.0116 21C55.0116 16.05 55.0116 11.1 55.0116 6C54.3516 6 58.6916 4.5 58.0116 4.5C58.0116 5.16 57.5116 4.82 57.5116 5.5C56.8516 5.5 58.1916 5 57.5116 5C57.5116 5.66 56.8713 4.90302 56.8713 5.58302C55.34 6.87209 58.2335 4.01808 56.2648 5.35402C55.6151 5.80004 45.681 12.0405 45.0116 12.5C44.5063 12.8377 44.5322 12.652 44.0116 13C41.8356 11.0721 39.671 10.4462 37.5116 8.5C36.8915 7.95279 31.8629 3.97395 31.224 3.41016C30.6375 2.87842 34.4596 6.46582 33.8553 5.91797C33.3107 5.43094 32.5727 5.06428 32.0116 4.5625C30.8182 3.12036 31.0116 3 31.0116 0Z" fill="#F5F1F9"/>
<path d="M63.6443 1.27344C64.944 1.27344 66.2437 1.27344 67.5828 1.27344C67.5828 6.54762 67.5828 11.8218 67.5828 17.2558C74.0813 17.2558 80.5798 17.2558 87.2752 17.2558C87.2752 11.9816 87.2752 6.70744 87.2752 1.27344C88.5749 1.27344 89.8746 1.27344 91.2137 1.27344C91.2708 4.2113 91.3059 7.14903 91.3368 10.0872C91.3533 10.9235 91.3698 11.7597 91.3868 12.6212C91.3932 13.4211 91.3995 14.2209 91.406 15.045C91.4163 15.7835 91.4267 16.522 91.4373 17.2829C91.2137 19.1361 91.2137 19.1361 89.2445 21.0164C86.8829 21.2597 86.8829 21.2597 83.9521 21.2661C82.9012 21.2685 81.8503 21.2709 80.7675 21.2734C79.1149 21.2625 79.1149 21.2625 77.429 21.2514C76.3273 21.2587 75.2256 21.2659 74.0905 21.2734C73.0396 21.271 71.9887 21.2686 70.9059 21.2661C69.9387 21.264 68.9716 21.2619 67.9751 21.2597C65.6135 21.0164 65.6135 21.0164 63.6443 19.1361C63.4207 17.2829 63.4207 17.2829 63.452 15.045C63.4583 14.2452 63.4647 13.4453 63.4712 12.6212C63.4877 11.785 63.5042 10.9488 63.5212 10.0872C63.5301 9.24376 63.539 8.40028 63.5481 7.53124C63.5714 5.44506 63.6038 3.35937 63.6443 1.27344Z" fill="#E8E4F7"/>
<path d="M23.5 0C25.5 2 25.4191 1.75599 26.5 3.30533C26.4899 4.11669 26.5105 4.5338 26.5 5.36975C26.4938 6.24851 26.4875 7.12728 26.4811 8.03267C26.4649 8.95138 26.4487 9.87009 26.432 10.8166C26.4232 11.7433 26.4145 12.67 26.4055 13.6248C26.3827 15.9168 26.3508 18.2083 26.311 20.5C25.0335 20.5 23.756 20.5 22.4398 20.5C22.4398 15.0463 22.5 8.80914 22.5 3.1902C16.5 3.1902 16.5 2.6902 8.8906 9.33186C5.56623 12.9476 4.16301 15.4481 3.7246 20.5C2.12773 20.5 1.64526 20.5 0 20.5C0.500008 17 0.500008 17.5 1.50001 14.5C3.00001 11.5 3.58214 9.75583 5.71262 8.03267C7.6556 6.40336 10.5 3.11512 13.5 1.5C17 -0.5 16.5166 0.309799 23.5 0Z" fill="#EBE8F7"/>
</svg>
